inDegrees=no
num_controls=7
num_derivatives=13
num_iterations=125
num_multipliers=7
num_parameters=0
num_slacks=7
num_states=26
objective=0.430573
objective_accelerations=0.050769
objective_balance=0.007021
objective_effort=0.031758
objective_height=0.339950
objective_ligament=0.001074
solver_duration=1583.174146
status=Solve_Succeeded
success=true
DataType=double
version=3
OpenSimVersion=4.5
endheader
time	/jointset/ground_pelvis/pelvis_tilt/value	/jointset/ground_pelvis/pelvis_tx/value	/jointset/ground_pelvis/pelvis_ty/value	/jointset/hip_l/hip_flexion_l/value	/jointset/hip_l/hip_adduction_l/value	/jointset/hip_l/hip_rotation_l/value	/jointset/back/lumbar_extension/value	/jointset/patellofemoral_l/patellar_flexion_l/value	/jointset/knee_l/knee_flexion_l/value	/jointset/knee_l/knee_adduction_l/value	/jointset/knee_l/knee_rotation_l/value	/jointset/ankle_l/ankle_angle_l/value	/jointset/subtalar_l/subtalar_angle_l/value	/jointset/ground_pelvis/pelvis_tilt/speed	/jointset/ground_pelvis/pelvis_tx/speed	/jointset/ground_pelvis/pelvis_ty/speed	/jointset/hip_l/hip_flexion_l/speed	/jointset/hip_l/hip_adduction_l/speed	/jointset/hip_l/hip_rotation_l/speed	/jointset/back/lumbar_extension/speed	/jointset/patellofemoral_l/patellar_flexion_l/speed	/jointset/knee_l/knee_flexion_l/speed	/jointset/knee_l/knee_adduction_l/speed	/jointset/knee_l/knee_rotation_l/speed	/jointset/ankle_l/ankle_angle_l/speed	/jointset/subtalar_l/subtalar_angle_l/speed	/forceset/tau_hip_flexion_l	/forceset/tau_hip_adduction_l	/forceset/tau_hip_rotation_l	/forceset/tau_knee_flexion_l	/forceset/tau_ankle_angle_l	/forceset/tau_subtalar_angle_l	/forceset/tau_lumbar_extension	lambda_cid13_p0	lambda_cid13_p1	lambda_cid13_p2	lambda_cid13_p3	lambda_cid13_p4	lambda_cid13_p5	lambda_cid14_p0	/jointset/ground_pelvis/pelvis_tilt/accel	/jointset/ground_pelvis/pelvis_tx/accel	/jointset/ground_pelvis/pelvis_ty/accel	/jointset/hip_l/hip_flexion_l/accel	/jointset/hip_l/hip_adduction_l/accel	/jointset/hip_l/hip_rotation_l/accel	/jointset/back/lumbar_extension/accel	/jointset/patellofemoral_l/patellar_flexion_l/accel	/jointset/knee_l/knee_flexion_l/accel	/jointset/knee_l/knee_adduction_l/accel	/jointset/knee_l/knee_rotation_l/accel	/jointset/ankle_l/ankle_angle_l/accel	/jointset/subtalar_l/subtalar_angle_l/accel	gamma_cid13_p0	gamma_cid13_p1	gamma_cid13_p2	gamma_cid13_p3	gamma_cid13_p4	gamma_cid13_p5	gamma_cid14_p0
1	-0.4611451839040166	-0.06084903088656874	0.5844654860561651	1.813809258990428	-0.2712463479485357	0.2275229877556307	-0.4363282151227781	1.43388966890485	1.433889668905086	-0.1744846500406533	0.1745320959841402	0.2982354139785821	0.04692585185025723	-0.01037148537076658	0.001034372787555058	-0.003282409037960237	0.01589962216985536	0.0008585845100531843	0.003131298455710812	6.798795089779804e-05	0.008113255012999933	0.008113255012999681	-2.41498186982228e-05	-6.363554751491813e-06	0.003082014775222446	0.001918569462854946	-0.3390077052019472	0.002907371093542957	-0.01200688979427969	-0.369584168014861	0.06304509739465941	0.01441617760608479	0.3004526478703318	-26.18639469451028	-0.2515647359139367	-1.989243824700678	15.74958282214173	-731.1209387622814	-54.64997930323116	-0.03903749594076549	1.05781902578939	-0.006906324959193321	1.842210011315337	-5.811748254640166	-0.6233311280527752	-2.099138252565119	-0.01147403310639528	-5.567014696570729	-5.567014696570634	-0.06687149814637056	0.01732217817028881	-1.11209086510128	-1.076571697206077	1.855568737694892e-10	2.592839040176737e-09	-8.990425410077405e-09	-3.85975392640104e-10	1.759346766759915e-09	-2.895707439775176e-09	1.508028487071745e-09
1.01	-0.4611963970324193	-0.06083902440851168	0.5845246707752711	1.813678248627791	-0.2712680820360909	0.2274473235997543	-0.43632765588865	1.433692822649351	1.433692822649496	-0.1744850277202655	0.1745320222917124	0.2982109536560753	0.04689246208676129	0.0001297020987154585	0.0009700709012947092	0.01511662856631933	-0.04209806272518243	-0.005202468968729344	-0.01826046663772335	4.25933931275519e-05	-0.04747657727576706	-0.04747657727576959	-5.09902351935306e-05	-7.921884052620806e-06	-0.007972770446567443	-0.008591260560469393	-0.3388720612919541	0.002930470669404927	-0.01203323587860355	-0.3695526393191678	0.06325322257136902	0.0144139289834629	0.3003632098151935	-26.10724614626702	-0.2658888988837932	-1.985312485916254	15.62400788880215	-730.9787472482269	-54.65290876859679	-0.03904789804271907	1.046395289039264	-0.005718486661224375	1.838340191121709	-5.793233728344178	-0.5970591460362177	-2.158652406995655	0.001738010647227358	-5.554076501820448	-5.554076501820848	0.02946555549672449	-0.008837852968131469	-1.101974998893652	-1.037404919338284	-2.052504482713414e-09	-6.501579335090245e-10	4.625808478494999e-08	7.035927772873316e-09	-8.892078574332129e-09	4.054174501064824e-08	-8.23977305211819e-09
1.02	-0.4611425729498244	-0.06082956622255759	0.5847677637816476	1.812967370391923	-0.2713503399960829	0.2271578504390912	-0.4363273885645464	1.432940256269606	1.432940256269661	-0.1744856626302622	0.1745319444130946	0.2980759849517155	0.04675413077014355	0.01063595682866297	0.0009247143669636075	0.03349924841610741	-0.1000739524765627	-0.01124618997732078	-0.03963050250168087	9.605945740609595e-06	-0.103030769836164	-0.1030307698361691	-7.559589577522015e-05	-7.200792866380264e-06	-0.01901966159538997	-0.01906974116150043	-0.3387364173819596	0.002953570245267067	-0.0120595819629306	-0.369521110623474	0.0634613477480787	0.01441168036084129	0.3002737717600564	-26.0358682446908	-0.2778209802811441	-1.982940938563094	15.54617173563815	-730.9351621905377	-54.60264190193313	-0.03905155341927703	1.058832477882484	-0.00311725457334272	1.838926460417042	-5.807389225908654	-0.6198646340145587	-2.094792406669789	-0.01299261102972831	-5.55988675089672	-5.559886750896688	-0.0664245469636479	0.01777806226776509	-1.110512050507806	-1.070301812747418	-4.225978724541872e-09	-4.659398779575977e-09	1.011058830579857e-07	1.399643891835521e-08	-1.958275576198866e-08	8.215297833555551e-08	-1.78907194865486e-08
1.03	-0.460983606856195	-0.06082045055541932	0.5851945370108335	1.811676941538877	-0.2714928873551782	0.2266548746884384	-0.4363274532435263	1.431632398903591	1.43163239890356	-0.1744865516931441	0.1745318895060892	0.2978304946498284	0.04651125244623362	0.02116351192555819	0.0009031617362607584	0.05184636042764237	-0.1579984838538647	-0.01725398792915622	-0.06095394375365615	-2.026760206532992e-05	-0.1585276665033483	-0.1585276665033539	-0.0001016484943317158	-2.955431201005821e-06	-0.03008620569257433	-0.02949221249844579	-0.3384686392977946	0.003028981274409554	-0.01214321688330378	-0.3691990247811304	0.06359919005319446	0.01451099007639016	0.3001040150462452	-25.96353112426669	-0.3471815957400612	-1.956388701235891	15.44197785660784	-730.6089996743661	-54.60430135477211	-0.03908309208825719	1.050655499899338	-0.0009586333776575752	1.831241902947053	-5.782984767362451	-0.5898661175563896	-2.149535343505487	0.002356394303140404	-5.542630028499804	-5.542630028499908	0.02937771741734231	-0.008164909018512679	-1.10589324333882	-1.026180647359284	-6.398793914179977e-09	-8.676458440667231e-09	1.559495924338581e-07	2.095224198200005e-08	-3.027383347869178e-08	1.237455767714269e-07	-2.75406776035835e-08
